<?xml version="1.0" encoding="utf-8"?>
<!-- Generator: Adobe Illustrator 16.0.0, SVG Export Plug-In . SVG Version: 6.00 Build 0)  -->
<!DOCTYPE svg PUBLIC "-//W3C//DTD SVG 1.1//EN" "http://www.w3.org/Graphics/SVG/1.1/DTD/svg11.dtd">
<svg version="1.1" id="Layer_1" xmlns="http://www.w3.org/2000/svg" xmlns:xlink="http://www.w3.org/1999/xlink" x="0px" y="0px"
	 width="370.5px" height="241px" viewBox="0 0 370.5 241" enable-background="new 0 0 370.5 241" xml:space="preserve">
<g>
	<polygon fill="#F9F7F7" points="0,119.5 186.5,0 186.5,24.5 41.5,119.5 41,230 186.5,230 186.5,241 20.5,241 20.5,119.5 	"/>
	<polygon fill="#F9F7F7" points="370.5,119.5 186.5,0 186.5,24.5 329.557,119.5 330.05,230 186.5,230 186.5,241 350.274,241 
		350.274,119.5 	"/>
	<rect x="37.099" y="140.975" fill="#F9F7F7" width="44" height="13"/>
	<path fill="#F9F7F7" d="M125.223,185.476h-88.25c-3.644,0-6.625-2.981-6.625-6.625s2.981-6.625,6.625-6.625h88.25
		c3.644,0,6.625,2.981,6.625,6.625S128.867,185.476,125.223,185.476"/>
	
		<rect x="78.919" y="201.076" transform="matrix(0.2944 0.9557 -0.9557 0.2944 276.9401 40.3018)" fill="#F9F7F7" width="64.515" height="13.25"/>
	<path fill="#F9F7F7" d="M81.098,140.976c0,0,16.75-0.5,16.75,15v19.5l-12.5-0.75v-16.501c0,0,1-4.999-5.25-4.249
		C73.973,151.351,81.098,140.976,81.098,140.976"/>
	<rect x="290.575" y="140.975" fill="#F9F7F7" width="42.563" height="13"/>
	<path fill="#F9F7F7" d="M248.108,185.476h84.934c3.644,0,6.625-2.981,6.625-6.625s-2.981-6.625-6.625-6.625h-84.934
		c-3.644,0-6.625,2.981-6.625,6.625S244.465,185.476,248.108,185.476"/>
	<polygon fill="#F9F7F7" points="258.417,240.479 276.79,178.824 264.541,174.922 246.168,236.578 	"/>
	<path fill="#F9F7F7" d="M290.575,140.976c0,0-16.203-0.5-16.203,15v19.5l12.092-0.75v-16.501c0,0-0.968-4.999,5.078-4.249
		C297.467,151.351,290.575,140.976,290.575,140.976"/>
	<rect x="146.816" y="70.815" fill="#F9F7F7" width="15.748" height="164.964"/>
	<rect x="211.069" y="70.815" fill="#F9F7F7" width="15.747" height="83.06"/>
	<rect x="159.909" y="141.076" fill="#F9F7F7" width="53.736" height="12.799"/>
	<polygon fill="#F9F7F7" points="196.191,57.059 155.066,81.399 146.839,70.842 187.964,46.5 	"/>
	<polygon fill="#F9F7F7" points="187.964,46.5 226.817,70.815 211.069,77 187.964,61.928 182.227,57.875 	"/>
	<rect x="171.516" y="91.167" fill="#F9F7F7" width="13.194" height="12.5"/>
	<rect x="188.456" y="91.167" fill="#F9F7F7" width="13.194" height="12.5"/>
	<rect x="188.456" y="107" fill="#F9F7F7" width="13.194" height="12.5"/>
	<rect x="171.516" y="107" fill="#F9F7F7" width="13.194" height="12.5"/>
	<rect x="171.47" y="172.225" fill="#F9F7F7" width="55.346" height="13.25"/>
	<rect x="171.47" y="202.076" fill="#F9F7F7" width="55.346" height="13.25"/>
</g>
</svg>
