<svg id="Layer_1" enable-background="new 0 0 512 512" height="512" viewBox="0 0 512 512" width="512" xmlns="http://www.w3.org/2000/svg"><g><g><g><g id="XMLID_720_"><g id="XMLID_721_"><g id="XMLID_722_"><g id="XMLID_723_"><g id="XMLID_724_"><g id="XMLID_725_"><g id="XMLID_726_"><g id="XMLID_727_"><g id="XMLID_728_"><g id="XMLID_729_"><g id="XMLID_730_"><g id="XMLID_731_"><g id="XMLID_732_"><g id="XMLID_749_"><g id="XMLID_750_"><circle cx="256" cy="256" fill="#5dcdf7" r="256"/></g></g></g></g></g></g></g></g></g></g></g></g></g></g></g></g></g><path d="m106.925 362.649 149.347 149.347c141.26-.147 255.728-114.702 255.728-255.996 0-9.152-.49-18.189-1.427-27.092l-110.255-110.256z" fill="#31a8dd"/><g><path d="m382.295 372.131c40.651-33.181 66.246-81.41 66.246-135.102 0-100.076-88.89-181.204-198.54-181.204s-198.54 81.128-198.54 181.204 88.89 181.204 198.54 181.204c23.736 0 46.497-3.808 67.597-10.781 33.369 34.716 103.313 12.517 103.313 12.517-16.995-12.16-30.33-28.707-38.616-47.838z" fill="#f7f4f0"/><path d="m420.909 419.966s-69.942 22.2-103.314-12.515c-21.093 6.97-43.857 10.782-67.595 10.782v-362.409c109.648 0 198.541 81.124 198.541 181.21 0 53.686-25.593 101.92-66.242 135.097 4.141 9.563 9.542 18.49 16.04 26.536 6.489 8.046 14.073 15.221 22.57 21.299z" fill="#e5e1dc"/><g><path d="m131.493 149.45h237.014v173.149h-237.014z" fill="#fcd144"/><path d="m250 149.452h118.505v173.145h-118.505z" fill="#f4b911"/><path d="m131.493 322.599 118.507-104.34 118.507 104.34z" fill="#f4b911"/><path d="m368.505 322.597h-118.505v-104.34l25.452 22.409z" fill="#e2a100"/><path d="m131.493 149.45 118.507 116.171 118.507-116.171z" fill="#ffe4a9"/><g><path d="m368.505 149.452-93.053 91.214-25.452 24.955v-116.169z" fill="#ffd788"/></g></g></g></g></svg>