<?xml version="1.0" encoding="iso-8859-1"?>
<!-- Generator: Adobe Illustrator 19.0.0, SVG Export Plug-In . SVG Version: 6.00 Build 0)  -->
<svg version="1.1" id="Layer_1" xmlns="http://www.w3.org/2000/svg" xmlns:xlink="http://www.w3.org/1999/xlink" x="0px" y="0px"
	 viewBox="0 0 505 505" style="enable-background:new 0 0 505 505;" xml:space="preserve">
<circle style="fill:#FD8469;" cx="252.5" cy="252.5" r="252.5"/>
<path style="fill:#324A5E;" d="M310,420.3H116.3c-2.4,0-4.4-2-4.4-4.4V89.1c0-2.4,2-4.4,4.4-4.4h193.8c2.4,0,4.4,2,4.4,4.4V416
	C314.4,418.4,312.5,420.3,310,420.3z"/>
<rect x="131.1" y="130" style="fill:#84DBFF;" width="164" height="241.4"/>
<g>
	<circle style="fill:#ACB3BA;" cx="213.2" cy="394.5" r="14.9"/>
	<path style="fill:#ACB3BA;" d="M238.7,118.9h-51c-0.5,0-0.9-0.4-0.9-0.9v-5.2c0-0.5,0.4-0.9,0.9-0.9h51c0.5,0,0.9,0.4,0.9,0.9v5.2
		C239.5,118.5,239.1,118.9,238.7,118.9z"/>
	<circle style="fill:#ACB3BA;" cx="213.2" cy="101.4" r="4.9"/>
</g>
<path style="fill:#FFFFFF;" d="M391.2,157H209c-6.4,0-11.5,5.2-11.5,11.5v104.2c0,6.4,5.2,11.5,11.5,11.5h11.7v34.7l34.7-34.7h135.8
	c6.4,0,11.5-5.2,11.5-11.5V168.5C402.7,162.2,397.6,157,391.2,157z"/>
<g>
	<path style="fill:#FFD05B;" d="M241.3,208.1c-1,0.8-1.5,2-1.5,3.4s0.6,2.5,1.9,3.3c1.3,0.8,4.1,1.8,8.7,2.9c4.5,1.1,8.1,2.8,10.6,5
		s3.8,5.5,3.8,9.8s-1.6,7.8-4.8,10.4c-3.2,2.7-7.4,4-12.7,4c-7.6,0-14.4-2.8-20.4-8.4l6.4-7.8c5.2,4.5,9.9,6.8,14.3,6.8
		c2,0,3.5-0.4,4.6-1.3c1.1-0.8,1.7-2,1.7-3.4s-0.6-2.6-1.8-3.4c-1.2-0.8-3.5-1.7-7-2.6c-5.6-1.3-9.6-3-12.2-5.2
		c-2.6-2.1-3.9-5.4-3.9-10c0-4.5,1.6-8,4.9-10.5c3.3-2.5,7.3-3.7,12.2-3.7c3.2,0,6.4,0.5,9.6,1.6c3.2,1.1,6,2.6,8.3,4.6l-5.4,7.8
		c-4.1-3.1-8.4-4.7-12.9-4.7C243.7,206.8,242.3,207.2,241.3,208.1z"/>
	<path style="fill:#FFD05B;" d="M316.6,216.3l-12.9,26.1h-6.4l-12.9-26.1v30.1h-10.7v-47.8h14.4l12.3,26.3l12.4-26.3h14.4v47.8
		h-10.7v-30.1H316.6z"/>
	<path style="fill:#FFD05B;" d="M350.2,208.1c-1,0.8-1.5,2-1.5,3.4s0.6,2.5,1.9,3.3s4.2,1.8,8.7,2.9c4.5,1.1,8.1,2.8,10.6,5
		s3.8,5.5,3.8,9.8s-1.6,7.8-4.8,10.4c-3.2,2.7-7.4,4-12.7,4c-7.6,0-14.4-2.8-20.4-8.4l6.4-7.8c5.2,4.5,9.9,6.8,14.3,6.8
		c2,0,3.5-0.4,4.6-1.3c1.1-0.8,1.7-2,1.7-3.4s-0.6-2.6-1.8-3.4c-1.2-0.8-3.5-1.7-7-2.6c-5.6-1.3-9.6-3-12.2-5.2
		c-2.6-2.1-3.9-5.4-3.9-10c0-4.5,1.6-8,4.9-10.5s7.3-3.7,12.2-3.7c3.2,0,6.4,0.5,9.6,1.6s6,2.6,8.3,4.6l-5.4,7.8
		c-4.2-3.1-8.4-4.7-12.9-4.7C352.6,206.8,351.2,207.2,350.2,208.1z"/>
</g>
<g>
</g>
<g>
</g>
<g>
</g>
<g>
</g>
<g>
</g>
<g>
</g>
<g>
</g>
<g>
</g>
<g>
</g>
<g>
</g>
<g>
</g>
<g>
</g>
<g>
</g>
<g>
</g>
<g>
</g>
</svg>
